<svg xmlns="http://www.w3.org/2000/svg" xmlns:xlink="http://www.w3.org/1999/xlink" xmlns:s="https://github.com/nturley/netlistsvg" width="1378" height="472.5"><style>svg {
  stroke:#000;
  fill:none;
}
text {
  fill:#000;
  stroke:none;
  font-size:10px;
  font-weight: bold;
  font-family: "Courier New", monospace;
}
line {
    stroke-linecap: round;
}
.nodelabel {
  text-anchor: middle;
}
.inputPortLabel {
  text-anchor: end;
}
.splitjoinBody {
  fill:#000;
}</style><g s:type="add" transform="translate(898.5,39.5)" s:width="25" s:height="25" id="cell_$add$/home/perinze/Documents/gradproj/float_add.v:66$8"><s:alias val="$add"/><circle r="12.5" cx="12.5" cy="12.5" class="cell_$add$/home/perinze/Documents/gradproj/float_add.v:66$8"/><line x1="7.5" x2="17.5" y1="12.5" y2="12.5" class="cell_$add$/home/perinze/Documents/gradproj/float_add.v:66$8"/><line x1="12.5" x2="12.5" y1="7.5" y2="17.5" class="cell_$add$/home/perinze/Documents/gradproj/float_add.v:66$8"/><g s:x="2" s:y="5" s:pid="A"/><g s:x="2" s:y="20" s:pid="B"/><g s:x="26" s:y="12.5" s:pid="Y"/></g><g s:type="neg" transform="translate(469,175)" s:width="25" s:height="25" id="cell_$neg$/home/perinze/Documents/gradproj/float_add.v:54$2"><s:alias val="$neg"/><circle r="12.5" cx="12.5" cy="12.5" class="cell_$neg$/home/perinze/Documents/gradproj/float_add.v:54$2"/><line x1="7.5" x2="17.5" y1="12.5" y2="12.5" class="cell_$neg$/home/perinze/Documents/gradproj/float_add.v:54$2"/><g s:x="0" s:y="12.5" s:pid="A"/><g s:x="25" s:y="12.5" s:pid="Y"/></g><g s:type="shr" transform="translate(700,75.5)" s:width="25" s:height="25" id="cell_$shr$/home/perinze/Documents/gradproj/float_add.v:58$4"><s:alias val="$shr"/><circle r="12" cx="12" cy="12" class="cell_$shr$/home/perinze/Documents/gradproj/float_add.v:58$4"/><line x1="8" x2="13" y1="7" y2="12" class="cell_$shr$/home/perinze/Documents/gradproj/float_add.v:58$4"/><line x1="8" x2="13" y1="17" y2="12" class="cell_$shr$/home/perinze/Documents/gradproj/float_add.v:58$4"/><line x1="14" x2="19" y1="7" y2="12" class="cell_$shr$/home/perinze/Documents/gradproj/float_add.v:58$4"/><line x1="14" x2="19" y1="17" y2="12" class="cell_$shr$/home/perinze/Documents/gradproj/float_add.v:58$4"/><g s:x="2" s:y="5" s:pid="A"/><g s:x="2" s:y="20" s:pid="B"/><g s:x="25" s:y="12.5" s:pid="Y"/></g><g s:type="shr" transform="translate(700,289.5)" s:width="25" s:height="25" id="cell_$shr$/home/perinze/Documents/gradproj/float_add.v:62$6"><s:alias val="$shr"/><circle r="12" cx="12" cy="12" class="cell_$shr$/home/perinze/Documents/gradproj/float_add.v:62$6"/><line x1="8" x2="13" y1="7" y2="12" class="cell_$shr$/home/perinze/Documents/gradproj/float_add.v:62$6"/><line x1="8" x2="13" y1="17" y2="12" class="cell_$shr$/home/perinze/Documents/gradproj/float_add.v:62$6"/><line x1="14" x2="19" y1="7" y2="12" class="cell_$shr$/home/perinze/Documents/gradproj/float_add.v:62$6"/><line x1="14" x2="19" y1="17" y2="12" class="cell_$shr$/home/perinze/Documents/gradproj/float_add.v:62$6"/><g s:x="2" s:y="5" s:pid="A"/><g s:x="2" s:y="20" s:pid="B"/><g s:x="25" s:y="12.5" s:pid="Y"/></g><g s:type="sub" transform="translate(245,39.5)" s:width="25" s:height="25" id="cell_$sub$/home/perinze/Documents/gradproj/float_add.v:53$1"><s:alias val="$sub"/><circle r="12.5" cx="12.5" cy="12.5" class="cell_$sub$/home/perinze/Documents/gradproj/float_add.v:53$1"/><line x1="7.5" x2="17.5" y1="12.5" y2="12.5" class="cell_$sub$/home/perinze/Documents/gradproj/float_add.v:53$1"/><g s:x="2" s:y="5" s:pid="A"/><g s:x="2" s:y="20" s:pid="B"/><g s:x="25" s:y="12.5" s:pid="Y"/></g><g s:type="mux-bus" transform="translate(601.5,105.5)" s:width="24" s:height="40" id="cell_$ternary$/home/perinze/Documents/gradproj/float_add.v:56$3"><s:alias val="$pmux-bus"/><s:alias val="$mux-bus"/><s:alias val="$_MUX_-bus"/><path d="M0,0 L20,10 L20,30 L0,40 Z" class="cell_$ternary$/home/perinze/Documents/gradproj/float_add.v:56$3"/><path d="M4,2 L4,0 L22,9 L22,31 L4,40 L4,38" class="cell_$ternary$/home/perinze/Documents/gradproj/float_add.v:56$3"/><path d="M8,2 L8,0 L24,8 L24,32 L8,40 L8,38" class="cell_$ternary$/home/perinze/Documents/gradproj/float_add.v:56$3"/><text x="5" y="32" class="nodelabel cell_$ternary$/home/perinze/Documents/gradproj/float_add.v:56$3" s:attribute="">1</text><text x="5" y="13" class="nodelabel cell_$ternary$/home/perinze/Documents/gradproj/float_add.v:56$3" s:attribute="">0</text><g s:x="-1" s:y="10" s:pid="A"/><g s:x="-1" s:y="30" s:pid="B"/><g s:x="12" s:y="38" s:pid="S"/><g s:x="24.5" s:y="20" s:pid="Y"/></g><g s:type="mux-bus" transform="translate(800,24.5)" s:width="24" s:height="40" id="cell_$ternary$/home/perinze/Documents/gradproj/float_add.v:59$5"><s:alias val="$pmux-bus"/><s:alias val="$mux-bus"/><s:alias val="$_MUX_-bus"/><path d="M0,0 L20,10 L20,30 L0,40 Z" class="cell_$ternary$/home/perinze/Documents/gradproj/float_add.v:59$5"/><path d="M4,2 L4,0 L22,9 L22,31 L4,40 L4,38" class="cell_$ternary$/home/perinze/Documents/gradproj/float_add.v:59$5"/><path d="M8,2 L8,0 L24,8 L24,32 L8,40 L8,38" class="cell_$ternary$/home/perinze/Documents/gradproj/float_add.v:59$5"/><text x="5" y="32" class="nodelabel cell_$ternary$/home/perinze/Documents/gradproj/float_add.v:59$5" s:attribute="">1</text><text x="5" y="13" class="nodelabel cell_$ternary$/home/perinze/Documents/gradproj/float_add.v:59$5" s:attribute="">0</text><g s:x="-1" s:y="10" s:pid="A"/><g s:x="-1" s:y="30" s:pid="B"/><g s:x="12" s:y="38" s:pid="S"/><g s:x="24.5" s:y="20" s:pid="Y"/></g><g s:type="mux-bus" transform="translate(800,292)" s:width="24" s:height="40" id="cell_$ternary$/home/perinze/Documents/gradproj/float_add.v:63$7"><s:alias val="$pmux-bus"/><s:alias val="$mux-bus"/><s:alias val="$_MUX_-bus"/><path d="M0,0 L20,10 L20,30 L0,40 Z" class="cell_$ternary$/home/perinze/Documents/gradproj/float_add.v:63$7"/><path d="M4,2 L4,0 L22,9 L22,31 L4,40 L4,38" class="cell_$ternary$/home/perinze/Documents/gradproj/float_add.v:63$7"/><path d="M8,2 L8,0 L24,8 L24,32 L8,40 L8,38" class="cell_$ternary$/home/perinze/Documents/gradproj/float_add.v:63$7"/><text x="5" y="32" class="nodelabel cell_$ternary$/home/perinze/Documents/gradproj/float_add.v:63$7" s:attribute="">1</text><text x="5" y="13" class="nodelabel cell_$ternary$/home/perinze/Documents/gradproj/float_add.v:63$7" s:attribute="">0</text><g s:x="-1" s:y="10" s:pid="A"/><g s:x="-1" s:y="30" s:pid="B"/><g s:x="12" s:y="38" s:pid="S"/><g s:x="24.5" s:y="20" s:pid="Y"/></g><g s:type="mux-bus" transform="translate(1103.5,32)" s:width="24" s:height="40" id="cell_$ternary$/home/perinze/Documents/gradproj/float_add.v:69$10"><s:alias val="$pmux-bus"/><s:alias val="$mux-bus"/><s:alias val="$_MUX_-bus"/><path d="M0,0 L20,10 L20,30 L0,40 Z" class="cell_$ternary$/home/perinze/Documents/gradproj/float_add.v:69$10"/><path d="M4,2 L4,0 L22,9 L22,31 L4,40 L4,38" class="cell_$ternary$/home/perinze/Documents/gradproj/float_add.v:69$10"/><path d="M8,2 L8,0 L24,8 L24,32 L8,40 L8,38" class="cell_$ternary$/home/perinze/Documents/gradproj/float_add.v:69$10"/><text x="5" y="32" class="nodelabel cell_$ternary$/home/perinze/Documents/gradproj/float_add.v:69$10" s:attribute="">1</text><text x="5" y="13" class="nodelabel cell_$ternary$/home/perinze/Documents/gradproj/float_add.v:69$10" s:attribute="">0</text><g s:x="-1" s:y="10" s:pid="A"/><g s:x="-1" s:y="30" s:pid="B"/><g s:x="12" s:y="38" s:pid="S"/><g s:x="24.5" s:y="20" s:pid="Y"/></g><g s:type="mux-bus" transform="translate(1103.5,374.5)" s:width="24" s:height="40" id="cell_$ternary$/home/perinze/Documents/gradproj/float_add.v:72$11"><s:alias val="$pmux-bus"/><s:alias val="$mux-bus"/><s:alias val="$_MUX_-bus"/><path d="M0,0 L20,10 L20,30 L0,40 Z" class="cell_$ternary$/home/perinze/Documents/gradproj/float_add.v:72$11"/><path d="M4,2 L4,0 L22,9 L22,31 L4,40 L4,38" class="cell_$ternary$/home/perinze/Documents/gradproj/float_add.v:72$11"/><path d="M8,2 L8,0 L24,8 L24,32 L8,40 L8,38" class="cell_$ternary$/home/perinze/Documents/gradproj/float_add.v:72$11"/><text x="5" y="32" class="nodelabel cell_$ternary$/home/perinze/Documents/gradproj/float_add.v:72$11" s:attribute="">1</text><text x="5" y="13" class="nodelabel cell_$ternary$/home/perinze/Documents/gradproj/float_add.v:72$11" s:attribute="">0</text><g s:x="-1" s:y="10" s:pid="A"/><g s:x="-1" s:y="30" s:pid="B"/><g s:x="12" s:y="38" s:pid="S"/><g s:x="24.5" s:y="20" s:pid="Y"/></g><g s:type="reduce_xor" transform="translate(1163,435.5)" s:width="33" s:height="25" id="cell_$xor$/home/perinze/Documents/gradproj/float_add.v:76$13"><s:alias val="$xor"/><s:alias val="$reduce_xor"/><s:alias val="$_XOR_"/><path d="M3,0 A30 25 0 0 1 3,25 A30 25 0 0 0 33,12.5 A30 25 0 0 0 3,0" class="cell_$xor$/home/perinze/Documents/gradproj/float_add.v:76$13"/><path d="M0,0 A30 25 0 0 1 0,25" class="cell_$xor$/home/perinze/Documents/gradproj/float_add.v:76$13"/><g s:x="2" s:y="5" s:pid="A"/><g s:x="2" s:y="20" s:pid="B"/><g s:x="33" s:y="12.5" s:pid="Y"/></g><g s:type="inputExt" transform="translate(12,24.5)" s:width="30" s:height="20" id="cell_a"><text x="15" y="-4" class="nodelabel cell_a" s:attribute="ref">a</text><s:alias val="$_inputExt_"/><path d="M0,0 L0,20 L15,20 L30,10 L15,0 Z" class="cell_a"/><g s:x="30" s:y="10" s:pid="Y"/></g><g s:type="inputExt" transform="translate(12,119.5)" s:width="30" s:height="20" id="cell_b"><text x="15" y="-4" class="nodelabel cell_b" s:attribute="ref">b</text><s:alias val="$_inputExt_"/><path d="M0,0 L0,20 L15,20 L30,10 L15,0 Z" class="cell_b"/><g s:x="30" s:y="10" s:pid="Y"/></g><g s:type="outputExt" transform="translate(1336,374.5)" s:width="30" s:height="20" id="cell_c"><text x="15" y="-4" class="nodelabel cell_c" s:attribute="ref">c</text><s:alias val="$_outputExt_"/><path d="M30,0 L30,20 L15,20 L0,10 L15,0 Z" class="cell_c"/><g s:x="0" s:y="10" s:pid="A"/></g><g s:type="constant" transform="translate(529,231)" s:width="30" s:height="20" id="cell_1"><text x="15" y="-4" class="nodelabel cell_1" s:attribute="ref">1</text><s:alias val="$_constant_"/><rect width="30" height="20" class="cell_1"/><g s:x="31" s:y="10" s:pid="Y"/></g><g s:type="constant" transform="translate(403,156.5)" s:width="30" s:height="20" id="cell_0"><text x="15" y="-4" class="nodelabel cell_0" s:attribute="ref">0</text><s:alias val="$_constant_"/><rect width="30" height="20" class="cell_0"/><g s:x="31" s:y="10" s:pid="Y"/></g><g s:type="join" transform="translate(620,14)" s:width="4" s:height="40" id="cell_$join$,2,3,4,5,6,7,8,9,10,11,12,13,14,15,16,17,18,19,20,21,22,23,24,243,"><rect width="5" height="40" class="splitjoinBody" s:generic="body"/><s:alias val="$_join_"/><g s:x="5" s:y="20" s:pid="out"/><g transform="translate(0,10)" s:x="0" s:y="10" s:pid="in0"><text x="-3" y="-4" class="inputPortLabel">0:22</text></g><g transform="translate(0,30)" s:x="0" s:y="10" s:pid="in0"><text x="-3" y="-4" class="inputPortLabel">23</text></g></g><g s:type="join" transform="translate(620,274)" s:width="4" s:height="40" id="cell_$join$,34,35,36,37,38,39,40,41,42,43,44,45,46,47,48,49,50,51,52,53,54,55,56,243,"><rect width="5" height="40" class="splitjoinBody" s:generic="body"/><s:alias val="$_join_"/><g s:x="5" s:y="20" s:pid="out"/><g transform="translate(0,10)" s:x="0" s:y="10" s:pid="in0"><text x="-3" y="-4" class="inputPortLabel">0:22</text></g><g transform="translate(0,30)" s:x="0" s:y="10" s:pid="in0"><text x="-3" y="-4" class="inputPortLabel">23</text></g></g><g s:type="join" transform="translate(488,95)" s:width="4" s:height="40" id="cell_$join$,171,172,173,174,175,176,177,245,"><rect width="5" height="40" class="splitjoinBody" s:generic="body"/><s:alias val="$_join_"/><g s:x="5" s:y="20" s:pid="out"/><g transform="translate(0,10)" s:x="0" s:y="10" s:pid="in0"><text x="-3" y="-4" class="inputPortLabel">0:6</text></g><g transform="translate(0,30)" s:x="0" s:y="10" s:pid="in0"><text x="-3" y="-4" class="inputPortLabel">7</text></g></g><g s:type="join" transform="translate(1256,364)" s:width="4" s:height="40" id="cell_$join$,66,67,68,69,70,71,72,73,74,75,76,77,78,79,80,81,82,83,84,85,86,87,88,89,90,91,92,93,94,95,96,97,"><rect width="5" height="60" class="splitjoinBody" s:generic="body"/><s:alias val="$_join_"/><g s:x="5" s:y="20" s:pid="out"/><g transform="translate(0,10)" s:x="0" s:y="10" s:pid="in0"><text x="-3" y="-4" class="inputPortLabel">0:22</text></g><g transform="translate(0,30)" s:x="0" s:y="10" s:pid="in0"><text x="-3" y="-4" class="inputPortLabel">23:30</text></g><g transform="translate(0,50)" s:x="0" s:y="10" s:pid="in0"><text x="-3" y="-4" class="inputPortLabel">31</text></g></g><g s:type="split" transform="translate(116,14)" s:width="5" s:height="40" id="cell_$split$,2,3,4,5,6,7,8,9,10,11,12,13,14,15,16,17,18,19,20,21,22,23,24,25,26,27,28,29,30,31,32,33,"><rect width="5" height="60" class="splitjoinBody" s:generic="body"/><s:alias val="$_split_"/><g s:x="0" s:y="20" s:pid="in"/><g transform="translate(4,10)" s:x="4" s:y="10" s:pid="out0"><text x="5" y="-4">0:22</text></g><g transform="translate(4,30)" s:x="4" s:y="10" s:pid="out0"><text x="5" y="-4">23:30</text></g><g transform="translate(4,50)" s:x="4" s:y="10" s:pid="out0"><text x="5" y="-4">31</text></g></g><g s:type="split" transform="translate(116,109)" s:width="5" s:height="40" id="cell_$split$,34,35,36,37,38,39,40,41,42,43,44,45,46,47,48,49,50,51,52,53,54,55,56,57,58,59,60,61,62,63,64,65,"><rect width="5" height="60" class="splitjoinBody" s:generic="body"/><s:alias val="$_split_"/><g s:x="0" s:y="20" s:pid="in"/><g transform="translate(4,10)" s:x="4" s:y="10" s:pid="out0"><text x="5" y="-4">0:22</text></g><g transform="translate(4,30)" s:x="4" s:y="10" s:pid="out0"><text x="5" y="-4">23:30</text></g><g transform="translate(4,50)" s:x="4" s:y="10" s:pid="out0"><text x="5" y="-4">31</text></g></g><g s:type="split" transform="translate(344,95)" s:width="5" s:height="40" id="cell_$split$,171,172,173,174,175,176,177,178,"><rect width="5" height="40" class="splitjoinBody" s:generic="body"/><s:alias val="$_split_"/><g s:x="0" s:y="20" s:pid="in"/><g transform="translate(4,10)" s:x="4" s:y="10" s:pid="out0"><text x="5" y="-4">0:6</text></g><g transform="translate(4,30)" s:x="4" s:y="10" s:pid="out0"><text x="5" y="-4">7</text></g></g><g s:type="split" transform="translate(998.5,31.5)" s:width="5" s:height="40" id="cell_$split$,146,147,148,149,150,151,152,153,154,155,156,157,158,159,160,161,162,163,164,165,166,167,168,169,170,"><rect width="5" height="60" class="splitjoinBody" s:generic="body"/><s:alias val="$_split_"/><g s:x="0" s:y="20" s:pid="in"/><g transform="translate(4,10)" s:x="4" s:y="10" s:pid="out0"><text x="5" y="-4">0:22</text></g><g transform="translate(4,30)" s:x="4" s:y="10" s:pid="out0"><text x="5" y="-4">1:23</text></g><g transform="translate(4,50)" s:x="4" s:y="10" s:pid="out0"><text x="5" y="-4">24</text></g></g><line x1="824.5" x2="900.5" y1="44.5" y2="44.5" class="net_98,99,100,101,102,103,104,105,106,107,108,109,110,111,112,113,114,115,116,117,118,119,120,121 width_24" style="stroke-width: 2"/><line x1="824.5" x2="873.5" y1="312" y2="312" class="net_122,123,124,125,126,127,128,129,130,131,132,133,134,135,136,137,138,139,140,141,142,143,144,145 width_24" style="stroke-width: 2"/><line x1="873.5" x2="873.5" y1="312" y2="59.5" class="net_122,123,124,125,126,127,128,129,130,131,132,133,134,135,136,137,138,139,140,141,142,143,144,145 width_24" style="stroke-width: 2"/><line x1="873.5" x2="900.5" y1="59.5" y2="59.5" class="net_122,123,124,125,126,127,128,129,130,131,132,133,134,135,136,137,138,139,140,141,142,143,144,145 width_24" style="stroke-width: 2"/><line x1="270" x2="388" y1="52" y2="52" class="net_171,172,173,174,175,176,177,178 width_8" style="stroke-width: 2"/><line x1="388" x2="388" y1="52" y2="187.5" class="net_171,172,173,174,175,176,177,178 width_8" style="stroke-width: 2"/><line x1="388" x2="469" y1="187.5" y2="187.5" class="net_171,172,173,174,175,176,177,178 width_8" style="stroke-width: 2"/><line x1="270" x2="280" y1="52" y2="52" class="net_171,172,173,174,175,176,177,178 width_8" style="stroke-width: 2"/><line x1="280" x2="280" y1="52" y2="115.5" class="net_171,172,173,174,175,176,177,178 width_8" style="stroke-width: 2"/><circle cx="280" cy="52" r="3" style="fill:#000" class="net_171,172,173,174,175,176,177,178 width_8"/><line x1="280" x2="344" y1="115.5" y2="115.5" class="net_171,172,173,174,175,176,177,178 width_8" style="stroke-width: 2"/><line x1="626" x2="636" y1="34.5" y2="34.5" class="net_2,3,4,5,6,7,8,9,10,11,12,13,14,15,16,17,18,19,20,21,22,23,24,243 width_24" style="stroke-width: 2"/><line x1="636" x2="636" y1="34.5" y2="80.5" class="net_2,3,4,5,6,7,8,9,10,11,12,13,14,15,16,17,18,19,20,21,22,23,24,243 width_24" style="stroke-width: 2"/><circle cx="636" cy="34.5" r="3" style="fill:#000" class="net_2,3,4,5,6,7,8,9,10,11,12,13,14,15,16,17,18,19,20,21,22,23,24,243 width_24"/><line x1="636" x2="702" y1="80.5" y2="80.5" class="net_2,3,4,5,6,7,8,9,10,11,12,13,14,15,16,17,18,19,20,21,22,23,24,243 width_24" style="stroke-width: 2"/><line x1="626" x2="799" y1="34.5" y2="34.5" class="net_2,3,4,5,6,7,8,9,10,11,12,13,14,15,16,17,18,19,20,21,22,23,24,243 width_24" style="stroke-width: 2"/><line x1="626" x2="675" y1="125.5" y2="125.5" class="net_187,188,189,190,191,192,193,194 width_8" style="stroke-width: 2"/><line x1="675" x2="675" y1="125.5" y2="95.5" class="net_187,188,189,190,191,192,193,194 width_8" style="stroke-width: 2"/><line x1="675" x2="702" y1="95.5" y2="95.5" class="net_187,188,189,190,191,192,193,194 width_8" style="stroke-width: 2"/><line x1="626" x2="646" y1="125.5" y2="125.5" class="net_187,188,189,190,191,192,193,194 width_8" style="stroke-width: 2"/><line x1="646" x2="646" y1="125.5" y2="314.5" class="net_187,188,189,190,191,192,193,194 width_8" style="stroke-width: 2"/><line x1="646" x2="675" y1="314.5" y2="314.5" class="net_187,188,189,190,191,192,193,194 width_8" style="stroke-width: 2"/><line x1="675" x2="675" y1="314.5" y2="309.5" class="net_187,188,189,190,191,192,193,194 width_8" style="stroke-width: 2"/><circle cx="646" cy="125.5" r="3" style="fill:#000" class="net_187,188,189,190,191,192,193,194 width_8"/><line x1="675" x2="702" y1="309.5" y2="309.5" class="net_187,188,189,190,191,192,193,194 width_8" style="stroke-width: 2"/><line x1="626" x2="702" y1="294.5" y2="294.5" class="net_34,35,36,37,38,39,40,41,42,43,44,45,46,47,48,49,50,51,52,53,54,55,56,243 width_24" style="stroke-width: 2"/><line x1="626" x2="636" y1="294.5" y2="294.5" class="net_34,35,36,37,38,39,40,41,42,43,44,45,46,47,48,49,50,51,52,53,54,55,56,243 width_24" style="stroke-width: 2"/><line x1="636" x2="636" y1="294.5" y2="353.5" class="net_34,35,36,37,38,39,40,41,42,43,44,45,46,47,48,49,50,51,52,53,54,55,56,243 width_24" style="stroke-width: 2"/><line x1="636" x2="774" y1="353.5" y2="353.5" class="net_34,35,36,37,38,39,40,41,42,43,44,45,46,47,48,49,50,51,52,53,54,55,56,243 width_24" style="stroke-width: 2"/><line x1="774" x2="774" y1="353.5" y2="322" class="net_34,35,36,37,38,39,40,41,42,43,44,45,46,47,48,49,50,51,52,53,54,55,56,243 width_24" style="stroke-width: 2"/><circle cx="636" cy="294.5" r="3" style="fill:#000" class="net_34,35,36,37,38,39,40,41,42,43,44,45,46,47,48,49,50,51,52,53,54,55,56,243 width_24"/><line x1="774" x2="799" y1="322" y2="322" class="net_34,35,36,37,38,39,40,41,42,43,44,45,46,47,48,49,50,51,52,53,54,55,56,243 width_24" style="stroke-width: 2"/><line x1="121" x2="247" y1="44.5" y2="44.5" class="net_25,26,27,28,29,30,31,32 width_8" style="stroke-width: 2"/><line x1="121" x2="196" y1="44.5" y2="44.5" class="net_25,26,27,28,29,30,31,32 width_8" style="stroke-width: 2"/><line x1="196" x2="196" y1="44.5" y2="384.5" class="net_25,26,27,28,29,30,31,32 width_8" style="stroke-width: 2"/><circle cx="196" cy="44.5" r="3" style="fill:#000" class="net_25,26,27,28,29,30,31,32 width_8"/><line x1="196" x2="1102.5" y1="384.5" y2="384.5" class="net_25,26,27,28,29,30,31,32 width_8" style="stroke-width: 2"/><line x1="121" x2="220" y1="139.5" y2="139.5" class="net_57,58,59,60,61,62,63,64 width_8" style="stroke-width: 2"/><line x1="220" x2="220" y1="139.5" y2="59.5" class="net_57,58,59,60,61,62,63,64 width_8" style="stroke-width: 2"/><line x1="220" x2="247" y1="59.5" y2="59.5" class="net_57,58,59,60,61,62,63,64 width_8" style="stroke-width: 2"/><line x1="121" x2="176" y1="139.5" y2="139.5" class="net_57,58,59,60,61,62,63,64 width_8" style="stroke-width: 2"/><line x1="176" x2="176" y1="139.5" y2="404.5" class="net_57,58,59,60,61,62,63,64 width_8" style="stroke-width: 2"/><circle cx="176" cy="139.5" r="3" style="fill:#000" class="net_57,58,59,60,61,62,63,64 width_8"/><line x1="176" x2="1102.5" y1="404.5" y2="404.5" class="net_57,58,59,60,61,62,63,64 width_8" style="stroke-width: 2"/><line x1="494" x2="600.5" y1="115.5" y2="115.5" class="net_171,172,173,174,175,176,177,245 width_8" style="stroke-width: 2"/><line x1="494" x2="580" y1="187.5" y2="187.5" class="net_179,180,181,182,183,184,185,186 width_8" style="stroke-width: 2"/><line x1="580" x2="580" y1="187.5" y2="135.5" class="net_179,180,181,182,183,184,185,186 width_8" style="stroke-width: 2"/><line x1="580" x2="600.5" y1="135.5" y2="135.5" class="net_179,180,181,182,183,184,185,186 width_8" style="stroke-width: 2"/><line x1="349" x2="378" y1="125.5" y2="125.5" class="net_178 width_1" style="stroke-width: 1"/><line x1="378" x2="378" y1="125.5" y2="210" class="net_178 width_1" style="stroke-width: 1"/><line x1="378" x2="613.5" y1="210" y2="210" class="net_178 width_1" style="stroke-width: 1"/><circle cx="378" cy="210" r="2" style="fill:#000" class="net_178 width_1"/><line x1="613.5" x2="613.5" y1="210" y2="143.5" class="net_178 width_1" style="stroke-width: 1"/><line x1="349" x2="378" y1="125.5" y2="125.5" class="net_178 width_1" style="stroke-width: 1"/><line x1="378" x2="378" y1="125.5" y2="210" class="net_178 width_1" style="stroke-width: 1"/><line x1="378" x2="504" y1="210" y2="210" class="net_178 width_1" style="stroke-width: 1"/><line x1="504" x2="504" y1="210" y2="261" class="net_178 width_1" style="stroke-width: 1"/><line x1="504" x2="812" y1="261" y2="261" class="net_178 width_1" style="stroke-width: 1"/><circle cx="504" cy="210" r="2" style="fill:#000" class="net_178 width_1"/><line x1="812" x2="812" y1="261" y2="62.5" class="net_178 width_1" style="stroke-width: 1"/><line x1="349" x2="378" y1="125.5" y2="125.5" class="net_178 width_1" style="stroke-width: 1"/><line x1="378" x2="378" y1="125.5" y2="369.5" class="net_178 width_1" style="stroke-width: 1"/><line x1="378" x2="812" y1="369.5" y2="369.5" class="net_178 width_1" style="stroke-width: 1"/><circle cx="378" cy="369.5" r="2" style="fill:#000" class="net_178 width_1"/><line x1="812" x2="812" y1="369.5" y2="330" class="net_178 width_1" style="stroke-width: 1"/><line x1="349" x2="378" y1="125.5" y2="125.5" class="net_178 width_1" style="stroke-width: 1"/><line x1="378" x2="378" y1="125.5" y2="424.5" class="net_178 width_1" style="stroke-width: 1"/><line x1="378" x2="1115.5" y1="424.5" y2="424.5" class="net_178 width_1" style="stroke-width: 1"/><line x1="1115.5" x2="1115.5" y1="424.5" y2="412.5" class="net_178 width_1" style="stroke-width: 1"/><line x1="725" x2="774" y1="88" y2="88" class="net_195,196,197,198,199,200,201,202,203,204,205,206,207,208,209,210,211,212,213,214,215,216,217,218 width_24" style="stroke-width: 2"/><line x1="774" x2="774" y1="88" y2="54.5" class="net_195,196,197,198,199,200,201,202,203,204,205,206,207,208,209,210,211,212,213,214,215,216,217,218 width_24" style="stroke-width: 2"/><line x1="774" x2="799" y1="54.5" y2="54.5" class="net_195,196,197,198,199,200,201,202,203,204,205,206,207,208,209,210,211,212,213,214,215,216,217,218 width_24" style="stroke-width: 2"/><line x1="725" x2="799" y1="302" y2="302" class="net_219,220,221,222,223,224,225,226,227,228,229,230,231,232,233,234,235,236,237,238,239,240,241,242 width_24" style="stroke-width: 2"/><line x1="1003.5" x2="1102.5" y1="42" y2="42" class="net_146,147,148,149,150,151,152,153,154,155,156,157,158,159,160,161,162,163,164,165,166,167,168 width_23" style="stroke-width: 2"/><line x1="1003.5" x2="1102.5" y1="62" y2="62" class="net_147,148,149,150,151,152,153,154,155,156,157,158,159,160,161,162,163,164,165,166,167,168,169 width_23" style="stroke-width: 2"/><line x1="1003.5" x2="1115.5" y1="82" y2="82" class="net_170 width_1" style="stroke-width: 1"/><line x1="1115.5" x2="1115.5" y1="82" y2="70" class="net_170 width_1" style="stroke-width: 1"/><line x1="121" x2="166" y1="64.5" y2="64.5" class="net_33 width_1" style="stroke-width: 1"/><line x1="166" x2="166" y1="64.5" y2="440.5" class="net_33 width_1" style="stroke-width: 1"/><line x1="166" x2="1165" y1="440.5" y2="440.5" class="net_33 width_1" style="stroke-width: 1"/><line x1="121" x2="156" y1="159.5" y2="159.5" class="net_65 width_1" style="stroke-width: 1"/><line x1="156" x2="156" y1="159.5" y2="451.5" class="net_65 width_1" style="stroke-width: 1"/><line x1="156" x2="1138" y1="451.5" y2="451.5" class="net_65 width_1" style="stroke-width: 1"/><line x1="1138" x2="1138" y1="451.5" y2="455.5" class="net_65 width_1" style="stroke-width: 1"/><line x1="1138" x2="1165" y1="455.5" y2="455.5" class="net_65 width_1" style="stroke-width: 1"/><line x1="1262" x2="1336" y1="384.5" y2="384.5" class="net_66,67,68,69,70,71,72,73,74,75,76,77,78,79,80,81,82,83,84,85,86,87,88,89,90,91,92,93,94,95,96,97 width_32" style="stroke-width: 2"/><line x1="121" x2="620" y1="24.5" y2="24.5" class="net_2,3,4,5,6,7,8,9,10,11,12,13,14,15,16,17,18,19,20,21,22,23,24 width_23" style="stroke-width: 2"/><line x1="560" x2="570" y1="241" y2="241" class="net_243 width_1" style="stroke-width: 1"/><line x1="570" x2="570" y1="241" y2="44.5" class="net_243 width_1" style="stroke-width: 1"/><circle cx="570" cy="241" r="2" style="fill:#000" class="net_243 width_1"/><line x1="570" x2="620" y1="44.5" y2="44.5" class="net_243 width_1" style="stroke-width: 1"/><line x1="560" x2="570" y1="241" y2="241" class="net_243 width_1" style="stroke-width: 1"/><line x1="570" x2="570" y1="241" y2="304.5" class="net_243 width_1" style="stroke-width: 1"/><line x1="570" x2="620" y1="304.5" y2="304.5" class="net_243 width_1" style="stroke-width: 1"/><line x1="121" x2="186" y1="119.5" y2="119.5" class="net_34,35,36,37,38,39,40,41,42,43,44,45,46,47,48,49,50,51,52,53,54,55,56 width_23" style="stroke-width: 2"/><line x1="186" x2="186" y1="119.5" y2="284.5" class="net_34,35,36,37,38,39,40,41,42,43,44,45,46,47,48,49,50,51,52,53,54,55,56 width_23" style="stroke-width: 2"/><line x1="186" x2="620" y1="284.5" y2="284.5" class="net_34,35,36,37,38,39,40,41,42,43,44,45,46,47,48,49,50,51,52,53,54,55,56 width_23" style="stroke-width: 2"/><line x1="349" x2="488" y1="105.5" y2="105.5" class="net_171,172,173,174,175,176,177 width_7" style="stroke-width: 2"/><line x1="434" x2="444" y1="166.5" y2="166.5" class="net_245 width_1" style="stroke-width: 1"/><line x1="444" x2="444" y1="166.5" y2="125.5" class="net_245 width_1" style="stroke-width: 1"/><line x1="444" x2="488" y1="125.5" y2="125.5" class="net_245 width_1" style="stroke-width: 1"/><line x1="1128" x2="1206" y1="52" y2="52" class="net_66,67,68,69,70,71,72,73,74,75,76,77,78,79,80,81,82,83,84,85,86,87,88 width_23" style="stroke-width: 2"/><line x1="1206" x2="1206" y1="52" y2="374.5" class="net_66,67,68,69,70,71,72,73,74,75,76,77,78,79,80,81,82,83,84,85,86,87,88 width_23" style="stroke-width: 2"/><line x1="1206" x2="1256" y1="374.5" y2="374.5" class="net_66,67,68,69,70,71,72,73,74,75,76,77,78,79,80,81,82,83,84,85,86,87,88 width_23" style="stroke-width: 2"/><line x1="1128" x2="1256" y1="394.5" y2="394.5" class="net_89,90,91,92,93,94,95,96 width_8" style="stroke-width: 2"/><line x1="1196" x2="1206" y1="448" y2="448" class="net_97 width_1" style="stroke-width: 1"/><line x1="1206" x2="1206" y1="448" y2="414.5" class="net_97 width_1" style="stroke-width: 1"/><line x1="1206" x2="1256" y1="414.5" y2="414.5" class="net_97 width_1" style="stroke-width: 1"/><line x1="42" x2="116" y1="34.5" y2="34.5" class="net_2,3,4,5,6,7,8,9,10,11,12,13,14,15,16,17,18,19,20,21,22,23,24,25,26,27,28,29,30,31,32,33 width_32" style="stroke-width: 2"/><line x1="42" x2="116" y1="129.5" y2="129.5" class="net_34,35,36,37,38,39,40,41,42,43,44,45,46,47,48,49,50,51,52,53,54,55,56,57,58,59,60,61,62,63,64,65 width_32" style="stroke-width: 2"/><line x1="924.5" x2="998.5" y1="52" y2="52" class="net_146,147,148,149,150,151,152,153,154,155,156,157,158,159,160,161,162,163,164,165,166,167,168,169,170 width_25" style="stroke-width: 2"/><rect x="860.5" y="39.5" width="22" height="9" class="net_98,99,100,101,102,103,104,105,106,107,108,109,110,111,112,113,114,115,116,117,118,119,120,121 width_24 busLabel_24" style="fill: white; stroke: none"/><text x="859.5" y="47.5" class="net_98,99,100,101,102,103,104,105,106,107,108,109,110,111,112,113,114,115,116,117,118,119,120,121 width_24 busLabel_24">/24/</text><rect x="860.5" y="307" width="22" height="9" class="net_122,123,124,125,126,127,128,129,130,131,132,133,134,135,136,137,138,139,140,141,142,143,144,145 width_24 busLabel_24" style="fill: white; stroke: none"/><text x="859.5" y="315" class="net_122,123,124,125,126,127,128,129,130,131,132,133,134,135,136,137,138,139,140,141,142,143,144,145 width_24 busLabel_24">/24/</text><rect x="306" y="110.5" width="16" height="9" class="net_171,172,173,174,175,176,177,178 width_8 busLabel_8" style="fill: white; stroke: none"/><text x="305" y="118.5" class="net_171,172,173,174,175,176,177,178 width_8 busLabel_8">/8/</text><rect x="306" y="110.5" width="16" height="9" class="net_171,172,173,174,175,176,177,178 width_8 busLabel_8" style="fill: white; stroke: none"/><text x="305" y="118.5" class="net_171,172,173,174,175,176,177,178 width_8 busLabel_8">/8/</text><rect x="711.5" y="29.5" width="22" height="9" class="net_2,3,4,5,6,7,8,9,10,11,12,13,14,15,16,17,18,19,20,21,22,23,24,243 width_24 busLabel_24" style="fill: white; stroke: none"/><text x="710.5" y="37.5" class="net_2,3,4,5,6,7,8,9,10,11,12,13,14,15,16,17,18,19,20,21,22,23,24,243 width_24 busLabel_24">/24/</text><rect x="711.5" y="29.5" width="22" height="9" class="net_2,3,4,5,6,7,8,9,10,11,12,13,14,15,16,17,18,19,20,21,22,23,24,243 width_24 busLabel_24" style="fill: white; stroke: none"/><text x="710.5" y="37.5" class="net_2,3,4,5,6,7,8,9,10,11,12,13,14,15,16,17,18,19,20,21,22,23,24,243 width_24 busLabel_24">/24/</text><rect x="662" y="309.5" width="16" height="9" class="net_187,188,189,190,191,192,193,194 width_8 busLabel_8" style="fill: white; stroke: none"/><text x="661" y="317.5" class="net_187,188,189,190,191,192,193,194 width_8 busLabel_8">/8/</text><rect x="662" y="309.5" width="16" height="9" class="net_187,188,189,190,191,192,193,194 width_8 busLabel_8" style="fill: white; stroke: none"/><text x="661" y="317.5" class="net_187,188,189,190,191,192,193,194 width_8 busLabel_8">/8/</text><rect x="711.5" y="348.5" width="22" height="9" class="net_34,35,36,37,38,39,40,41,42,43,44,45,46,47,48,49,50,51,52,53,54,55,56,243 width_24 busLabel_24" style="fill: white; stroke: none"/><text x="710.5" y="356.5" class="net_34,35,36,37,38,39,40,41,42,43,44,45,46,47,48,49,50,51,52,53,54,55,56,243 width_24 busLabel_24">/24/</text><rect x="711.5" y="348.5" width="22" height="9" class="net_34,35,36,37,38,39,40,41,42,43,44,45,46,47,48,49,50,51,52,53,54,55,56,243 width_24 busLabel_24" style="fill: white; stroke: none"/><text x="710.5" y="356.5" class="net_34,35,36,37,38,39,40,41,42,43,44,45,46,47,48,49,50,51,52,53,54,55,56,243 width_24 busLabel_24">/24/</text><rect x="662" y="379.5" width="16" height="9" class="net_25,26,27,28,29,30,31,32 width_8 busLabel_8" style="fill: white; stroke: none"/><text x="661" y="387.5" class="net_25,26,27,28,29,30,31,32 width_8 busLabel_8">/8/</text><rect x="662" y="379.5" width="16" height="9" class="net_25,26,27,28,29,30,31,32 width_8 busLabel_8" style="fill: white; stroke: none"/><text x="661" y="387.5" class="net_25,26,27,28,29,30,31,32 width_8 busLabel_8">/8/</text><rect x="662" y="399.5" width="16" height="9" class="net_57,58,59,60,61,62,63,64 width_8 busLabel_8" style="fill: white; stroke: none"/><text x="661" y="407.5" class="net_57,58,59,60,61,62,63,64 width_8 busLabel_8">/8/</text><rect x="662" y="399.5" width="16" height="9" class="net_57,58,59,60,61,62,63,64 width_8 busLabel_8" style="fill: white; stroke: none"/><text x="661" y="407.5" class="net_57,58,59,60,61,62,63,64 width_8 busLabel_8">/8/</text><rect x="543.5" y="110.5" width="16" height="9" class="net_171,172,173,174,175,176,177,245 width_8 busLabel_8" style="fill: white; stroke: none"/><text x="542.5" y="118.5" class="net_171,172,173,174,175,176,177,245 width_8 busLabel_8">/8/</text><rect x="543.5" y="182.5" width="16" height="9" class="net_179,180,181,182,183,184,185,186 width_8 busLabel_8" style="fill: white; stroke: none"/><text x="542.5" y="190.5" class="net_179,180,181,182,183,184,185,186 width_8 busLabel_8">/8/</text><rect x="761" y="83" width="22" height="9" class="net_195,196,197,198,199,200,201,202,203,204,205,206,207,208,209,210,211,212,213,214,215,216,217,218 width_24 busLabel_24" style="fill: white; stroke: none"/><text x="760" y="91" class="net_195,196,197,198,199,200,201,202,203,204,205,206,207,208,209,210,211,212,213,214,215,216,217,218 width_24 busLabel_24">/24/</text><rect x="761" y="297" width="22" height="9" class="net_219,220,221,222,223,224,225,226,227,228,229,230,231,232,233,234,235,236,237,238,239,240,241,242 width_24 busLabel_24" style="fill: white; stroke: none"/><text x="760" y="305" class="net_219,220,221,222,223,224,225,226,227,228,229,230,231,232,233,234,235,236,237,238,239,240,241,242 width_24 busLabel_24">/24/</text><rect x="1064.5" y="37" width="22" height="9" class="net_146,147,148,149,150,151,152,153,154,155,156,157,158,159,160,161,162,163,164,165,166,167,168 width_23 busLabel_23" style="fill: white; stroke: none"/><text x="1063.5" y="45" class="net_146,147,148,149,150,151,152,153,154,155,156,157,158,159,160,161,162,163,164,165,166,167,168 width_23 busLabel_23">/23/</text><rect x="1064.5" y="57" width="22" height="9" class="net_147,148,149,150,151,152,153,154,155,156,157,158,159,160,161,162,163,164,165,166,167,168,169 width_23 busLabel_23" style="fill: white; stroke: none"/><text x="1063.5" y="65" class="net_147,148,149,150,151,152,153,154,155,156,157,158,159,160,161,162,163,164,165,166,167,168,169 width_23 busLabel_23">/23/</text><rect x="1298" y="379.5" width="22" height="9" class="net_66,67,68,69,70,71,72,73,74,75,76,77,78,79,80,81,82,83,84,85,86,87,88,89,90,91,92,93,94,95,96,97 width_32 busLabel_32" style="fill: white; stroke: none"/><text x="1297" y="387.5" class="net_66,67,68,69,70,71,72,73,74,75,76,77,78,79,80,81,82,83,84,85,86,87,88,89,90,91,92,93,94,95,96,97 width_32 busLabel_32">/32/</text><rect x="355" y="19.5" width="22" height="9" class="net_2,3,4,5,6,7,8,9,10,11,12,13,14,15,16,17,18,19,20,21,22,23,24 width_23 busLabel_23" style="fill: white; stroke: none"/><text x="354" y="27.5" class="net_2,3,4,5,6,7,8,9,10,11,12,13,14,15,16,17,18,19,20,21,22,23,24 width_23 busLabel_23">/23/</text><rect x="355" y="279.5" width="22" height="9" class="net_34,35,36,37,38,39,40,41,42,43,44,45,46,47,48,49,50,51,52,53,54,55,56 width_23 busLabel_23" style="fill: white; stroke: none"/><text x="354" y="287.5" class="net_34,35,36,37,38,39,40,41,42,43,44,45,46,47,48,49,50,51,52,53,54,55,56 width_23 busLabel_23">/23/</text><rect x="417.5" y="100.5" width="16" height="9" class="net_171,172,173,174,175,176,177 width_7 busLabel_7" style="fill: white; stroke: none"/><text x="416.5" y="108.5" class="net_171,172,173,174,175,176,177 width_7 busLabel_7">/7/</text><rect x="1178.5" y="47" width="22" height="9" class="net_66,67,68,69,70,71,72,73,74,75,76,77,78,79,80,81,82,83,84,85,86,87,88 width_23 busLabel_23" style="fill: white; stroke: none"/><text x="1177.5" y="55" class="net_66,67,68,69,70,71,72,73,74,75,76,77,78,79,80,81,82,83,84,85,86,87,88 width_23 busLabel_23">/23/</text><rect x="1178.5" y="389.5" width="16" height="9" class="net_89,90,91,92,93,94,95,96 width_8 busLabel_8" style="fill: white; stroke: none"/><text x="1177.5" y="397.5" class="net_89,90,91,92,93,94,95,96 width_8 busLabel_8">/8/</text><rect x="78" y="29.5" width="22" height="9" class="net_2,3,4,5,6,7,8,9,10,11,12,13,14,15,16,17,18,19,20,21,22,23,24,25,26,27,28,29,30,31,32,33 width_32 busLabel_32" style="fill: white; stroke: none"/><text x="77" y="37.5" class="net_2,3,4,5,6,7,8,9,10,11,12,13,14,15,16,17,18,19,20,21,22,23,24,25,26,27,28,29,30,31,32,33 width_32 busLabel_32">/32/</text><rect x="78" y="124.5" width="22" height="9" class="net_34,35,36,37,38,39,40,41,42,43,44,45,46,47,48,49,50,51,52,53,54,55,56,57,58,59,60,61,62,63,64,65 width_32 busLabel_32" style="fill: white; stroke: none"/><text x="77" y="132.5" class="net_34,35,36,37,38,39,40,41,42,43,44,45,46,47,48,49,50,51,52,53,54,55,56,57,58,59,60,61,62,63,64,65 width_32 busLabel_32">/32/</text><rect x="960.5" y="47" width="22" height="9" class="net_146,147,148,149,150,151,152,153,154,155,156,157,158,159,160,161,162,163,164,165,166,167,168,169,170 width_25 busLabel_25" style="fill: white; stroke: none"/><text x="959.5" y="55" class="net_146,147,148,149,150,151,152,153,154,155,156,157,158,159,160,161,162,163,164,165,166,167,168,169,170 width_25 busLabel_25">/25/</text></svg>